<?xml version="1.0" encoding="UTF-8"?>
<svg version="1.1" xmlns="http://www.w3.org/2000/svg" width="149" height="152">
<path d="M0 0 C5.82896335 4.19685361 9.55926213 8.85017001 11 16 C11.95133856 23.74661396 10.43833406 29.57580987 6 36 C-3.45771974 46.8337852 -18.06978824 52.76866369 -32 55 C-49.83629417 56.16614571 -66.42323003 53.18662224 -80.78125 41.79296875 C-83.26566229 39.59665849 -85.64320939 37.33202573 -88 35 C-88.70511719 34.34386719 -89.41023438 33.68773437 -90.13671875 33.01171875 C-95.27116632 28.1480534 -95.27116632 28.1480534 -96 24 C-95.34 24 -94.68 24 -94 24 C-93.29875 25.051875 -92.5975 26.10375 -91.875 27.1875 C-86.61809953 34.75193527 -78.76206204 37.2951644 -70 39 C-60.82952826 39.98255054 -52.44357655 36.80625984 -44.97265625 31.6953125 C-40.4608647 27.81785204 -38.60068322 24.6040993 -37.625 18.75 C-36.04799511 11.18209064 -33.04048697 6.12266229 -27.6875 0.625 C-18.75742345 -4.77458117 -9.08502531 -5.78137974 0 0 Z " fill="#5FAA49" transform="translate(116,85)"/>
<path d="M0 0 C15.25676312 10.17117541 24.49337116 24.51330217 29.140625 42.12890625 C31.6096616 58.56628878 29.86846026 75.86414207 20.5625 89.9375 C19.33838032 86.26514096 20.27548363 85.26287816 21.81982422 81.89990234 C23.08516975 78.55642852 23.13634388 75.29415299 23.125 71.75 C23.1240332 71.01040039 23.12306641 70.27080078 23.12207031 69.50878906 C22.82943962 60.25284013 18.66403464 52.76942092 12.5625 45.9375 C6.53628857 41.64797628 0.08902317 38.47455909 -7.4375 38.9375 C-8.365625 39.246875 -9.29375 39.55625 -10.25 39.875 C-17.11136464 42.16212155 -24.2063634 41.90128032 -30.8125 38.9375 C-37.23330818 35.30385936 -41.11957915 29.88077423 -43.4375 22.9375 C-44.43324742 14.16975 -42.82411112 7.74131238 -37.375 0.75 C-26.11768255 -11.48105166 -12.57353759 -7.45098524 0 0 Z " fill="#214D5E" transform="translate(111.4375,18.0625)"/>
<path d="M0 0 C0 0.99 0 1.98 0 3 C-0.9178125 3.08636719 -1.835625 3.17273438 -2.78125 3.26171875 C-10.40700972 4.1348362 -15.96822054 5.18928809 -22 10 C-22.886875 10.598125 -23.77375 11.19625 -24.6875 11.8125 C-30.40477738 17.22073536 -33.6917628 24.02894408 -34.30078125 31.875 C-34.31521277 33.24992981 -34.31896142 34.62500963 -34.3125 36 C-34.33666992 37.02867188 -34.33666992 37.02867188 -34.36132812 38.078125 C-34.36669938 43.70719848 -33.10641384 47.7068813 -29.28125 51.87109375 C-28.39953125 52.64646484 -28.39953125 52.64646484 -27.5 53.4375 C-22.12175215 58.67930182 -20.83456625 62.99738526 -20.5 70.375 C-20.69361199 77.7070018 -22.75458956 82.42311058 -27.64453125 87.8125 C-33.46477657 93.27801253 -39.76831301 94.45475131 -47.5859375 94.2421875 C-54.86225352 93.5122011 -60.1407031 89.14449265 -65 84 C-70.69380642 74.81644125 -69.83599432 63.47377589 -68 53.1875 C-65.14186814 41.15114191 -58.9111174 28.70193624 -50 20 C-49.34 20 -48.68 20 -48 20 C-48 19.34 -48 18.68 -48 18 C-34.50992933 6.20946579 -17.88141816 0 0 0 Z " fill="#224E5F" transform="translate(78,7)"/>
<path d="M0 0 C0.33 0 0.66 0 1 0 C1.33 1.98 1.66 3.96 2 6 C2.66 5.67 3.32 5.34 4 5 C3.67422369 12.16707877 0.34556372 17.76927124 -3 24 C-4 21 -4 21 -2.625 18.1875 C0.04855851 12.54739027 -0.24652181 6.12904217 0 0 Z " fill="#C7D2D6" transform="translate(135,84)"/>
<path d="M0 0 C0 0.99 0 1.98 0 3 C-0.94101563 3.12117187 -1.88203125 3.24234375 -2.8515625 3.3671875 C-4.71941406 3.61855469 -4.71941406 3.61855469 -6.625 3.875 C-8.46964844 4.11863281 -8.46964844 4.11863281 -10.3515625 4.3671875 C-13.73961517 4.95483689 -16.77698651 5.81988122 -20 7 C-19.01 6.01 -18.02 5.02 -17 4 C-17.33 3.34 -17.66 2.68 -18 2 C-15.7505194 1.66317938 -13.50039296 1.33066999 -11.25 1 C-9.99703125 0.814375 -8.7440625 0.62875 -7.453125 0.4375 C-4 0 -4 0 0 0 Z " fill="#CDD7DB" transform="translate(78,7)"/>
<path d="M0 0 C0.66 0 1.32 0 2 0 C3.22115084 1.71621199 4.43875984 3.43525626 5.625 5.17578125 C7.43185196 7.57293996 9.56799548 9.26285391 12 11 C11.01 11.33 10.02 11.66 9 12 C7.67837119 10.75965588 6.36799547 9.50731374 5.0625 8.25 C4.33160156 7.55390625 3.60070312 6.8578125 2.84765625 6.140625 C0.99482354 3.99400275 0.39228435 2.76467068 0 0 Z " fill="#B2D6A7" transform="translate(20,109)"/>
</svg>
